<svg width="15" height="13" viewBox="0 0 15 13" fill="none" xmlns="http://www.w3.org/2000/svg">
<g clip-path="url(#clip0_2394_49)">
<path d="M14.458 6.95805L9.26573 12.1504C9.10316 12.3129 8.88266 12.4043 8.65275 12.4043C8.42284 12.4043 8.20234 12.3129 8.03977 12.1504C7.8772 11.9878 7.78586 11.7673 7.78586 11.5374C7.78586 11.3075 7.8772 11.087 8.03977 10.9244L11.7544 7.21118H1.15347C0.923956 7.21118 0.703842 7.12 0.541551 6.95771C0.37926 6.79542 0.288086 6.57531 0.288086 6.34579C0.288086 6.11628 0.37926 5.89616 0.541551 5.73387C0.703842 5.57158 0.923956 5.48041 1.15347 5.48041H11.7544L8.04121 1.76502C7.87864 1.60245 7.78731 1.38195 7.78731 1.15204C7.78731 0.922129 7.87864 0.701634 8.04121 0.539061C8.20378 0.376488 8.42428 0.285156 8.65419 0.285156C8.8841 0.285156 9.1046 0.376488 9.26717 0.539061L14.4595 5.73137C14.5402 5.81187 14.6042 5.90753 14.6478 6.01283C14.6914 6.11814 14.7138 6.23103 14.7137 6.34501C14.7135 6.45899 14.6909 6.57183 14.647 6.67703C14.6031 6.78223 14.5389 6.87774 14.458 6.95805Z" fill="black"/>
</g>
<defs>
<clipPath id="clip0_2394_49">
<rect width="15" height="12.6923" fill="white"/>
</clipPath>
</defs>
</svg>
